<?xml version="1.0" standalone="no"?>
<!DOCTYPE svg PUBLIC "-//W3C//DTD SVG 20010904//EN"
 "http://www.w3.org/TR/2001/REC-SVG-20010904/DTD/svg10.dtd">
<svg version="1.0" xmlns="http://www.w3.org/2000/svg"
 width="1200.000000pt" height="1194.000000pt" viewBox="0 0 1200.000000 1194.000000"
 preserveAspectRatio="xMidYMid meet">

<g transform="translate(0.000000,1194.000000) scale(0.100000,-0.100000)"
fill="#000000" stroke="none">
<path d="M3990 9319 c-650 -46 -1158 -261 -1473 -624 -306 -354 -470 -816
-526 -1490 -5 -55 -9 -328 -10 -607 l-1 -508 759 0 760 0 3 588 c4 567 5 590
26 665 63 226 231 400 442 457 362 99 745 -5 905 -246 63 -95 102 -214 119
-364 3 -25 5 -282 5 -572 l1 -528 785 0 785 0 0 568 c0 535 1 572 20 652 79
328 326 510 710 525 400 15 671 -165 762 -506 l22 -84 6 -2105 c5 -1978 6
-2109 23 -2165 60 -203 179 -346 368 -445 112 -58 207 -80 350 -80 188 0 322
38 462 130 174 113 274 276 307 500 8 54 10 635 7 2095 -3 1823 -5 2033 -20
2150 -60 457 -138 729 -297 1022 -316 586 -883 912 -1695 972 -147 11 -493 6
-635 -9 -450 -48 -846 -182 -1110 -376 l-61 -45 -67 49 c-279 205 -623 326
-1062 372 -136 14 -523 19 -670 9z"/>
<path d="M1970 4911 c0 -665 6 -861 36 -1101 56 -451 195 -842 403 -1135 79
-111 248 -284 362 -370 388 -292 932 -433 1594 -411 662 21 1165 195 1528 527
293 268 500 665 597 1142 61 305 63 334 67 1210 l4 807 -775 0 -775 0 -4 -812
c-3 -803 -3 -814 -25 -897 -62 -232 -215 -388 -437 -445 -96 -24 -252 -38
-345 -31 -178 14 -290 49 -406 127 -157 105 -248 272 -274 503 -6 52 -10 400
-10 823 l0 732 -770 0 -770 0 0 -669z"/>
</g>
</svg>
